# xmcd
# 
# Track frame offsets:
#	150
#	11791
#	22086
#	36073
#	47796
#	61159
#	74615
#	90206
#	102778
#	114318
#	130475
#	142516
#	157275
#	167244
#	177580
#	188777
#	199230
#	213773
#
# Disc length: 3074 seconds
#
# Revision: 1
# Processed by: cddbd v1.4PL0 Copyright (c) Steve Scherf et al.
# Submitted via: Audio-CD-Archiv 2.10.438
#
DISCID=fc0c0012
DTITLE=Various Artist - Golden Sound Country and Western
DYEAR=1900
DGENRE=country
TTITLE0=Dave Dudley - Six Days On The Road
TTITLE1=David Price - Jack Knife
TTITLE2=Freddy Quinn - Take Me Home, Country Roads
TTITLE3=Ferlin Husky - I Could Sing All Night
TTITLE4=Ronnie Rogers - Diane(Do The Wrong Again With Me)
TTITLE5=Rick Johnson - If You Are Going To Tulsa
TTITLE6=Karen O`Donnel - I Know What It`s All About Now, Mama
TTITLE7=George Kent - Hardscuffle Road
TTITLE8=Red Taylor and Bobby Rude - Home On The Range
TTITLE9=Bobby Bare - Me And Bobby McGee
TTITLE10=Dave Dudley - Rollin`On - We Gone
TTITLE11=Reno Riggins - Tom Dooley
TTITLE12=Dave Dudley - Truck Drivin` Son-Of-A-Gun
TTITLE13=Jonny Hill - King Of The Road
TTITLE14=Bobby Bare - That`s How I Got To Memphis
TTITLE15=Freddy Quinn - The Yellow Rose Of Texas
TTITLE16=Dave Dudley - Deutschland Autobahn
TTITLE17=Bobby Bare - Sylvia`s Mother
EXTD=
EXTT0=
EXTT1=
EXTT2=
EXTT3=
EXTT4=
EXTT5=
EXTT6=
EXTT7=
EXTT8=
EXTT9=
EXTT10=
EXTT11=
EXTT12=
EXTT13=
EXTT14=
EXTT15=
EXTT16=
EXTT17=
PLAYORDER=
